<?xml version="1.0" encoding="UTF-8" standalone="no"?>
<svg
   width="156"
   height="18"
   viewBox="0 0 156 18"
   fill="none"
   version="1.1"
   id="svg8"
   sodipodi:docname="0c6b11af4a7fcaae0c1ad37e4ff6e745.svg"
   xmlns:inkscape="http://www.inkscape.org/namespaces/inkscape"
   xmlns:sodipodi="http://sodipodi.sourceforge.net/DTD/sodipodi-0.dtd"
   xmlns="http://www.w3.org/2000/svg"
   xmlns:svg="http://www.w3.org/2000/svg">
  <defs
     id="defs12" />
  <sodipodi:namedview
     id="namedview10"
     pagecolor="#ffffff"
     bordercolor="#666666"
     borderopacity="1.0"
     inkscape:pageshadow="2"
     inkscape:pageopacity="0.0"
     inkscape:pagecheckerboard="0" />
  <path
     d="M2.2952 10.4008H8.46742L9.42892 12.3725H4.00109L2.66739 15.1083H0L2.2952 10.4008ZM2.72943 9.46424L7.31982 0L10.9797 7.55414L14.6396 15.1083H12.0033L7.31982 5.47152L5.39682 9.46424H2.72943ZM98.0311 9.04526C96.8215 9.98182 95.2707 10.524 93.5958 10.5733L100.295 15.1083H96.4493L89.4396 10.3515V15.1083H86.9583V9.24243L92.5723 3.8695H95.798L90.8354 8.62627H93.3167C95.6119 8.62627 97.5038 7.12283 97.5038 5.29899C97.5038 3.45051 95.6119 1.97172 93.3167 1.97172H89.4396V5.29899L86.9583 7.66505V0H93.3167C95.0846 0 96.7595 0.542222 98.0311 1.55273C99.3028 2.53859 99.9851 3.8695 99.9851 5.29899C99.9851 6.70384 99.3028 8.03475 98.0311 9.04526Z"
     fill="#070707"
     id="path2" />
  <path
     d="M19.8843 9.60684C19.8009 9.58096 19.6844 9.55364 19.5349 9.52488C19.3882 9.49325 19.1984 9.47743 18.9654 9.47743C18.6434 9.47743 18.34 9.51769 18.0552 9.59822C17.7734 9.67586 17.5103 9.78227 17.2658 9.91743C17.0243 10.0526 16.7999 10.2108 16.5929 10.3919C16.3858 10.5702 16.1989 10.76 16.0321 10.9614V15.0767H15.4929V9.14959H16.0321V10.3574C16.2248 10.159 16.4333 9.97639 16.6576 9.80959C16.8848 9.64279 17.1235 9.50044 17.3737 9.38253C17.6239 9.26174 17.8856 9.16828 18.1588 9.10214C18.4349 9.03312 18.7196 8.99861 19.0129 8.99861C19.1135 8.99861 19.2041 9.00148 19.2847 9.00723C19.3652 9.01011 19.4385 9.01586 19.5047 9.02449C19.5737 9.03024 19.6384 9.03743 19.6988 9.04606C19.7592 9.05469 19.821 9.06475 19.8843 9.07625V9.60684ZM26.9631 14.6065C26.7561 14.6927 26.5504 14.7718 26.3462 14.8437C26.1449 14.9156 25.935 14.9774 25.7164 15.0292C25.4979 15.081 25.2678 15.1212 25.0262 15.15C24.7847 15.1788 24.5215 15.1931 24.2368 15.1931C23.886 15.1931 23.5481 15.1644 23.2231 15.1069C22.901 15.0493 22.6005 14.9631 22.3215 14.848C22.0426 14.733 21.7895 14.5906 21.5623 14.421C21.3351 14.2484 21.1396 14.0486 20.9756 13.8214C20.8146 13.5942 20.6895 13.3382 20.6004 13.0535C20.5141 12.7688 20.4709 12.4568 20.4709 12.1174C20.4709 11.7781 20.5141 11.4661 20.6004 11.1814C20.6895 10.8967 20.8146 10.6407 20.9756 10.4135C21.1396 10.1863 21.3351 9.98789 21.5623 9.81822C21.7895 9.64567 22.0426 9.50188 22.3215 9.38684C22.6005 9.27181 22.901 9.18554 23.2231 9.12802C23.5452 9.0705 23.8831 9.04174 24.2368 9.04174C24.5215 9.04174 24.7847 9.05612 25.0262 9.08488C25.2678 9.11364 25.4979 9.1539 25.7164 9.20567C25.935 9.25743 26.1449 9.31926 26.3462 9.39116C26.5504 9.46018 26.7561 9.53782 26.9631 9.6241V10.2712C26.7992 10.1676 26.6238 10.0699 26.4368 9.97782C26.2499 9.8858 26.0472 9.80528 25.8286 9.73626C25.6129 9.66724 25.3814 9.61259 25.1341 9.57233C24.8868 9.53207 24.6222 9.51194 24.3404 9.51194C23.7709 9.51194 23.2777 9.57377 22.8607 9.69743C22.4438 9.82109 22.0987 9.99652 21.8255 10.2237C21.5551 10.448 21.3538 10.7212 21.2215 11.0433C21.0921 11.3625 21.0274 11.7206 21.0274 12.1174C21.0274 12.5143 21.0921 12.8723 21.2215 13.1916C21.3538 13.5108 21.5551 13.784 21.8255 14.0112C22.0987 14.2355 22.4438 14.4095 22.8607 14.5331C23.2777 14.6539 23.7709 14.7143 24.3404 14.7143C24.6222 14.7143 24.8882 14.6942 25.1384 14.6539C25.3915 14.6137 25.6273 14.559 25.8459 14.49C26.0673 14.421 26.27 14.3419 26.4541 14.2527C26.641 14.1607 26.8107 14.0644 26.9631 13.9637V14.6065ZM34.4129 15.0767V12.2037H29.1027V15.0767H28.5635V9.14959H29.1027V11.7033H34.4129V9.14959H34.9521V15.0767H34.4129ZM36.9494 15.0767V9.14959H37.4886V15.0767H36.9494ZM41.8886 9.64135V15.0767H41.3537V9.64135H38.6576V9.14959H44.5847V9.64135H41.8886ZM51.5428 14.7661C51.3012 14.8408 51.0769 14.9055 50.8698 14.9602C50.6628 15.012 50.4586 15.0537 50.2573 15.0853C50.056 15.1198 49.8504 15.1442 49.6404 15.1586C49.4334 15.1759 49.2047 15.1845 48.9545 15.1845C48.3736 15.1845 47.8488 15.114 47.38 14.9731C46.9113 14.8322 46.5115 14.6309 46.1808 14.3692C45.853 14.1046 45.5999 13.7854 45.4216 13.4116C45.2433 13.0377 45.1541 12.6178 45.1541 12.1519C45.1541 11.7004 45.239 11.2863 45.4086 10.9096C45.5812 10.5329 45.8213 10.2093 46.129 9.939C46.4368 9.66867 46.8049 9.45874 47.2334 9.3092C47.6619 9.15965 48.1349 9.08488 48.6526 9.08488C49.1904 9.08488 49.6692 9.15678 50.089 9.30057C50.5089 9.44436 50.8626 9.64998 51.1502 9.91743C51.4378 10.1849 51.6564 10.5099 51.8059 10.8923C51.9555 11.2719 52.0302 11.7004 52.0302 12.1778V12.3116H45.7106C45.7422 12.6797 45.8343 13.0118 45.9867 13.308C46.1391 13.6042 46.3548 13.8559 46.6337 14.0629C46.9156 14.27 47.2607 14.4296 47.669 14.5418C48.0803 14.651 48.5591 14.7057 49.1055 14.7057C49.3385 14.7057 49.5743 14.6899 49.813 14.6582C50.0517 14.6266 50.2803 14.5849 50.4989 14.5331C50.7174 14.4785 50.9173 14.4181 51.0985 14.352C51.2796 14.2829 51.4277 14.2125 51.5428 14.1406V14.7661ZM51.4996 11.8414C51.4795 11.5394 51.4119 11.2518 51.2969 10.9786C51.1819 10.7025 51.0093 10.4595 50.7792 10.2496C50.5521 10.0397 50.2616 9.87286 49.9079 9.7492C49.557 9.62554 49.1357 9.56371 48.6439 9.56371C48.1809 9.56371 47.7754 9.62554 47.4275 9.7492C47.0795 9.87286 46.7847 10.0397 46.5432 10.2496C46.3016 10.4566 46.1118 10.6982 45.9737 10.9743C45.8357 11.2475 45.748 11.5365 45.7106 11.8414H51.4996ZM59.6871 14.6065C59.4801 14.6927 59.2744 14.7718 59.0702 14.8437C58.8689 14.9156 58.659 14.9774 58.4404 15.0292C58.2219 15.081 57.9918 15.1212 57.7502 15.15C57.5087 15.1788 57.2455 15.1931 56.9608 15.1931C56.61 15.1931 56.2721 15.1644 55.9471 15.1069C55.625 15.0493 55.3245 14.9631 55.0455 14.848C54.7666 14.733 54.5135 14.5906 54.2863 14.421C54.0591 14.2484 53.8636 14.0486 53.6996 13.8214C53.5386 13.5942 53.4135 13.3382 53.3243 13.0535C53.2381 12.7688 53.1949 12.4568 53.1949 12.1174C53.1949 11.7781 53.2381 11.4661 53.3243 11.1814C53.4135 10.8967 53.5386 10.6407 53.6996 10.4135C53.8636 10.1863 54.0591 9.98789 54.2863 9.81822C54.5135 9.64567 54.7666 9.50188 55.0455 9.38684C55.3245 9.27181 55.625 9.18554 55.9471 9.12802C56.2692 9.0705 56.6071 9.04174 56.9608 9.04174C57.2455 9.04174 57.5087 9.05612 57.7502 9.08488C57.9918 9.11364 58.2219 9.1539 58.4404 9.20567C58.659 9.25743 58.8689 9.31926 59.0702 9.39116C59.2744 9.46018 59.4801 9.53782 59.6871 9.6241V10.2712C59.5232 10.1676 59.3478 10.0699 59.1608 9.97782C58.9739 9.8858 58.7712 9.80528 58.5526 9.73626C58.3369 9.66724 58.1054 9.61259 57.8581 9.57233C57.6108 9.53207 57.3462 9.51194 57.0644 9.51194C56.4949 9.51194 56.0017 9.57377 55.5847 9.69743C55.1678 9.82109 54.8227 9.99652 54.5495 10.2237C54.2791 10.448 54.0778 10.7212 53.9455 11.0433C53.8161 11.3625 53.7514 11.7206 53.7514 12.1174C53.7514 12.5143 53.8161 12.8723 53.9455 13.1916C54.0778 13.5108 54.2791 13.784 54.5495 14.0112C54.8227 14.2355 55.1678 14.4095 55.5847 14.5331C56.0017 14.6539 56.4949 14.7143 57.0644 14.7143C57.3462 14.7143 57.6122 14.6942 57.8624 14.6539C58.1155 14.6137 58.3513 14.559 58.5699 14.49C58.7913 14.421 58.994 14.3419 59.1781 14.2527C59.365 14.1607 59.5347 14.0644 59.6871 13.9637V14.6065ZM63.6903 9.64135V15.0767H63.1554V9.64135H60.4593V9.14959H66.3863V9.64135H63.6903ZM73.3444 14.7661C73.1028 14.8408 72.8785 14.9055 72.6715 14.9602C72.4644 15.012 72.2602 15.0537 72.0589 15.0853C71.8576 15.1198 71.652 15.1442 71.442 15.1586C71.235 15.1759 71.0064 15.1845 70.7562 15.1845C70.1752 15.1845 69.6504 15.114 69.1816 14.9731C68.7129 14.8322 68.3131 14.6309 67.9824 14.3692C67.6546 14.1046 67.4015 13.7854 67.2232 13.4116C67.0449 13.0377 66.9558 12.6178 66.9558 12.1519C66.9558 11.7004 67.0406 11.2863 67.2103 10.9096C67.3828 10.5329 67.6229 10.2093 67.9307 9.939C68.2384 9.66867 68.6065 9.45874 69.035 9.3092C69.4635 9.15965 69.9365 9.08488 70.4542 9.08488C70.992 9.08488 71.4708 9.15678 71.8907 9.30057C72.3105 9.44436 72.6643 9.64998 72.9518 9.91743C73.2394 10.1849 73.458 10.5099 73.6075 10.8923C73.7571 11.2719 73.8319 11.7004 73.8319 12.1778V12.3116H67.5122C67.5439 12.6797 67.6359 13.0118 67.7883 13.308C67.9407 13.6042 68.1564 13.8559 68.4354 14.0629C68.7172 14.27 69.0623 14.4296 69.4707 14.5418C69.8819 14.651 70.3607 14.7057 70.9071 14.7057C71.1401 14.7057 71.3759 14.6899 71.6146 14.6582C71.8533 14.6266 72.0819 14.5849 72.3005 14.5331C72.519 14.4785 72.7189 14.4181 72.9001 14.352C73.0813 14.2829 73.2294 14.2125 73.3444 14.1406V14.7661ZM73.3013 11.8414C73.2811 11.5394 73.2135 11.2518 73.0985 10.9786C72.9835 10.7025 72.8109 10.4595 72.5809 10.2496C72.3537 10.0397 72.0632 9.87286 71.7095 9.7492C71.3586 9.62554 70.9373 9.56371 70.4456 9.56371C69.9826 9.56371 69.5771 9.62554 69.2291 9.7492C68.8811 9.87286 68.5863 10.0397 68.3448 10.2496C68.1032 10.4566 67.9134 10.6982 67.7754 10.9743C67.6373 11.2475 67.5496 11.5365 67.5122 11.8414H73.3013ZM81.8813 12.1088C81.8813 12.4884 81.841 12.8263 81.7605 13.1225C81.6828 13.4159 81.5721 13.6718 81.4283 13.8904C81.2845 14.1089 81.1091 14.2944 80.9021 14.4469C80.6979 14.5993 80.4693 14.7215 80.2162 14.8135C79.966 14.9055 79.6928 14.9731 79.3966 15.0163C79.1032 15.0565 78.7941 15.0767 78.4691 15.0767H75.4107V9.14959H78.4605C78.9465 9.14959 79.398 9.19704 79.815 9.29194C80.232 9.38684 80.5929 9.54933 80.8977 9.77939C81.2055 10.0066 81.4456 10.31 81.6181 10.6896C81.7936 11.0692 81.8813 11.5423 81.8813 12.1088ZM81.3248 12.1088C81.3248 11.7867 81.2932 11.502 81.2299 11.2547C81.1666 11.0074 81.076 10.7931 80.9581 10.6119C80.8402 10.4279 80.6964 10.274 80.5268 10.1504C80.3571 10.0267 80.1659 9.9275 79.953 9.85273C79.7402 9.77508 79.5087 9.72044 79.2585 9.6888C79.0083 9.65717 78.7423 9.64135 78.4605 9.64135H75.9499V14.5806H78.4605C78.8832 14.5806 79.27 14.5432 79.6209 14.4684C79.9717 14.3908 80.2723 14.2585 80.5225 14.0716C80.7755 13.8818 80.9725 13.6287 81.1134 13.3123C81.2544 12.9931 81.3248 12.5919 81.3248 12.1088Z"
     fill="#070707"
     id="path4" />
  <path
     d="M107.44 14.7661C107.198 14.8408 106.974 14.9055 106.767 14.9602C106.56 15.012 106.356 15.0537 106.154 15.0853C105.953 15.1198 105.747 15.1442 105.537 15.1586C105.33 15.1759 105.102 15.1845 104.852 15.1845C104.271 15.1845 103.746 15.114 103.277 14.9731C102.808 14.8322 102.409 14.6309 102.078 14.3692C101.75 14.1046 101.497 13.7854 101.319 13.4116C101.14 13.0377 101.051 12.6178 101.051 12.1519C101.051 11.7004 101.136 11.2863 101.306 10.9096C101.478 10.5329 101.718 10.2093 102.026 9.939C102.334 9.66867 102.702 9.45874 103.13 9.3092C103.559 9.15965 104.032 9.08488 104.55 9.08488C105.087 9.08488 105.566 9.15678 105.986 9.30057C106.406 9.44436 106.76 9.64998 107.047 9.91743C107.335 10.1849 107.553 10.5099 107.703 10.8923C107.852 11.2719 107.927 11.7004 107.927 12.1778V12.3116H101.608C101.639 12.6797 101.731 13.0118 101.884 13.308C102.036 13.6042 102.252 13.8559 102.531 14.0629C102.813 14.27 103.158 14.4296 103.566 14.5418C103.977 14.651 104.456 14.7057 105.003 14.7057C105.235 14.7057 105.471 14.6899 105.71 14.6582C105.949 14.6266 106.177 14.5849 106.396 14.5331C106.614 14.4785 106.814 14.4181 106.995 14.352C107.177 14.2829 107.325 14.2125 107.44 14.1406V14.7661ZM107.397 11.8414C107.377 11.5394 107.309 11.2518 107.194 10.9786C107.079 10.7025 106.906 10.4595 106.676 10.2496C106.449 10.0397 106.159 9.87286 105.805 9.7492C105.454 9.62554 105.033 9.56371 104.541 9.56371C104.078 9.56371 103.672 9.62554 103.324 9.7492C102.977 9.87286 102.682 10.0397 102.44 10.2496C102.199 10.4566 102.009 10.6982 101.871 10.9743C101.733 11.2475 101.645 11.5365 101.608 11.8414H107.397ZM110.045 13.0276C110.045 13.2951 110.067 13.5252 110.11 13.7178C110.153 13.9105 110.244 14.0687 110.382 14.1923C110.52 14.316 110.718 14.408 110.977 14.4684C111.239 14.5259 111.585 14.5547 112.017 14.5547H114.695V15.0767H111.909C111.434 15.0767 111.042 15.0393 110.731 14.9645C110.423 14.8869 110.178 14.7689 109.994 14.6108C109.812 14.4497 109.686 14.247 109.614 14.0025C109.542 13.7581 109.506 13.4676 109.506 13.1312V9.14959H110.045V13.0276ZM121.145 15.0767V14.421C120.937 14.5331 120.702 14.6367 120.437 14.7316C120.175 14.8265 119.898 14.9084 119.605 14.9774C119.314 15.0465 119.015 15.0997 118.707 15.1371C118.4 15.1744 118.098 15.1931 117.801 15.1931C117.416 15.1931 117.069 15.1586 116.762 15.0896C116.457 15.0206 116.198 14.9185 115.985 14.7833C115.772 14.6453 115.609 14.4756 115.494 14.2743C115.378 14.0701 115.321 13.8343 115.321 13.5669C115.321 13.3023 115.387 13.0693 115.519 12.868C115.655 12.6638 115.846 12.487 116.093 12.3374C116.34 12.185 116.638 12.057 116.986 11.9535C117.337 11.8471 117.728 11.758 118.159 11.6861C118.591 11.6113 119.057 11.5509 119.557 11.5049C120.06 11.456 120.589 11.4157 121.145 11.3841V10.9312C121.145 10.7471 121.11 10.5846 121.041 10.4437C120.972 10.3028 120.876 10.1806 120.752 10.077C120.628 9.97063 120.483 9.88292 120.316 9.8139C120.149 9.74201 119.968 9.68449 119.773 9.64135C119.58 9.59822 119.376 9.56802 119.16 9.55076C118.947 9.53063 118.733 9.52057 118.517 9.52057C118.227 9.52057 117.962 9.53495 117.724 9.56371C117.485 9.59246 117.262 9.63273 117.055 9.68449C116.848 9.73338 116.65 9.7909 116.46 9.85704C116.27 9.92318 116.079 9.99364 115.886 10.0684V9.43861C116.286 9.3322 116.711 9.24018 117.163 9.16253C117.617 9.08201 118.099 9.04174 118.608 9.04174C119.039 9.04174 119.442 9.07913 119.816 9.1539C120.19 9.2258 120.515 9.34227 120.791 9.50331C121.067 9.66436 121.284 9.87286 121.442 10.1288C121.6 10.3819 121.679 10.691 121.679 11.0563V15.0767H121.145ZM121.145 11.8629C120.204 11.9147 119.4 11.988 118.733 12.0829C118.069 12.1778 117.525 12.2943 117.103 12.4323C116.68 12.5704 116.369 12.7314 116.171 12.9155C115.975 13.0995 115.877 13.308 115.877 13.541C115.877 13.7308 115.925 13.899 116.02 14.0457C116.118 14.1923 116.257 14.316 116.438 14.4167C116.619 14.5144 116.839 14.5892 117.098 14.641C117.357 14.6899 117.648 14.7143 117.97 14.7143C118.159 14.7143 118.355 14.7042 118.556 14.6841C118.76 14.6611 118.963 14.6309 119.165 14.5935C119.366 14.5533 119.564 14.5072 119.76 14.4555C119.955 14.4008 120.139 14.3419 120.312 14.2786C120.485 14.2154 120.641 14.1478 120.782 14.0759C120.926 14.004 121.047 13.9306 121.145 13.8559V11.8629ZM125.946 9.64135V15.0767H125.411V9.64135H122.715V9.14959H128.642V9.64135H125.946ZM129.807 15.0767V9.14959H130.346V15.0767H129.807ZM139.456 12.1174C139.456 12.6495 139.36 13.1096 139.167 13.4978C138.975 13.8832 138.71 14.2024 138.374 14.4555C138.037 14.7057 137.64 14.8912 137.183 15.012C136.726 15.1327 136.233 15.1931 135.703 15.1931C135.171 15.1931 134.675 15.1327 134.215 15.012C133.755 14.8912 133.355 14.7057 133.016 14.4555C132.677 14.2024 132.411 13.8832 132.218 13.4978C132.025 13.1096 131.929 12.6495 131.929 12.1174C131.929 11.7637 131.973 11.4431 132.063 11.1555C132.152 10.865 132.277 10.6062 132.438 10.379C132.599 10.1489 132.793 9.9505 133.02 9.78371C133.25 9.61691 133.505 9.47887 133.784 9.36959C134.066 9.25743 134.368 9.17547 134.69 9.1237C135.012 9.06906 135.35 9.04174 135.703 9.04174C136.233 9.04174 136.726 9.10214 137.183 9.22292C137.64 9.34371 138.037 9.53063 138.374 9.78371C138.71 10.0339 138.975 10.3531 139.167 10.7414C139.36 11.1267 139.456 11.5854 139.456 12.1174ZM138.9 12.1174C138.9 11.6976 138.831 11.3266 138.693 11.0045C138.558 10.6824 138.356 10.4121 138.089 10.1935C137.821 9.97207 137.488 9.80528 137.088 9.69312C136.691 9.57808 136.23 9.52057 135.703 9.52057C135.177 9.52057 134.713 9.57808 134.31 9.69312C133.91 9.80815 133.575 9.97639 133.305 10.1978C133.035 10.4164 132.83 10.6882 132.692 11.0131C132.554 11.3352 132.485 11.7033 132.485 12.1174C132.485 12.5373 132.554 12.9083 132.692 13.2304C132.83 13.5525 133.035 13.8242 133.305 14.0457C133.575 14.2642 133.91 14.431 134.31 14.5461C134.713 14.6582 135.177 14.7143 135.703 14.7143C136.23 14.7143 136.691 14.6582 137.088 14.5461C137.488 14.431 137.821 14.2642 138.089 14.0457C138.356 13.8242 138.558 13.5525 138.693 13.2304C138.831 12.9083 138.9 12.5373 138.9 12.1174ZM146.777 15.0767V11.1641C146.777 10.8363 146.732 10.5674 146.643 10.3574C146.557 10.1446 146.432 9.97639 146.268 9.85273C146.107 9.72907 145.91 9.64279 145.677 9.5939C145.444 9.54501 145.182 9.52057 144.892 9.52057C144.555 9.52057 144.224 9.56227 143.899 9.64567C143.577 9.72619 143.273 9.82972 142.985 9.95626C142.697 10.0799 142.433 10.218 142.191 10.3704C141.95 10.5228 141.745 10.6695 141.579 10.8104V15.0767H141.039V9.14959H141.579V10.1892C141.78 10.0627 142.001 9.93037 142.243 9.79233C142.487 9.65142 142.749 9.52344 143.028 9.40841C143.31 9.2905 143.61 9.19416 143.93 9.11939C144.249 9.04462 144.585 9.00723 144.939 9.00723C145.339 9.00723 145.687 9.05612 145.983 9.1539C146.282 9.2488 146.529 9.3854 146.725 9.56371C146.923 9.73913 147.072 9.95338 147.169 10.2065C147.267 10.4566 147.316 10.737 147.316 11.0476V15.0767H146.777ZM154.076 10.0253C153.963 9.97063 153.834 9.91312 153.687 9.85273C153.541 9.78946 153.372 9.73338 153.183 9.68449C152.996 9.6356 152.784 9.59534 152.549 9.56371C152.313 9.5292 152.051 9.51194 151.763 9.51194C151.415 9.51194 151.105 9.53207 150.832 9.57233C150.561 9.61259 150.331 9.67586 150.141 9.76214C149.955 9.84554 149.811 9.95194 149.71 10.0814C149.612 10.2108 149.563 10.3646 149.563 10.5429C149.563 10.6925 149.609 10.8233 149.701 10.9355C149.796 11.0476 149.923 11.1468 150.081 11.2331C150.242 11.3194 150.429 11.3985 150.642 11.4704C150.858 11.5394 151.085 11.6055 151.323 11.6688C151.565 11.7292 151.812 11.791 152.065 11.8543C152.321 11.9176 152.569 11.9866 152.807 12.0614C153.049 12.1333 153.276 12.2152 153.489 12.3072C153.705 12.3964 153.892 12.5014 154.05 12.6221C154.211 12.7429 154.337 12.881 154.429 13.0363C154.524 13.1916 154.572 13.3713 154.572 13.5755C154.572 13.7969 154.53 13.991 154.447 14.1578C154.363 14.3218 154.25 14.4641 154.106 14.5849C153.965 14.7028 153.798 14.802 153.605 14.8825C153.416 14.9602 153.211 15.022 152.993 15.068C152.777 15.114 152.553 15.1457 152.32 15.1629C152.09 15.1831 151.863 15.1931 151.638 15.1931C151.124 15.1931 150.656 15.1557 150.236 15.081C149.819 15.0062 149.421 14.9041 149.041 14.7747V14.1147C149.433 14.3476 149.845 14.5072 150.279 14.5935C150.717 14.6798 151.175 14.7229 151.656 14.7229C151.995 14.7229 152.308 14.7028 152.596 14.6625C152.884 14.6223 153.132 14.559 153.342 14.4727C153.552 14.3836 153.715 14.2686 153.83 14.1276C153.948 13.9867 154.007 13.8142 154.007 13.61C154.007 13.4461 153.959 13.3023 153.864 13.1786C153.772 13.055 153.646 12.9471 153.485 12.8551C153.326 12.7602 153.14 12.6768 152.924 12.6049C152.711 12.533 152.485 12.4669 152.247 12.4065C152.008 12.3432 151.761 12.2828 151.505 12.2253C151.252 12.1649 151.006 12.1002 150.767 12.0312C150.528 11.9621 150.301 11.8845 150.085 11.7982C149.873 11.7119 149.686 11.6113 149.525 11.4963C149.366 11.3784 149.24 11.2432 149.145 11.0908C149.053 10.9383 149.007 10.7615 149.007 10.5602C149.007 10.3617 149.044 10.1863 149.119 10.0339C149.194 9.87861 149.296 9.74488 149.425 9.63273C149.558 9.52057 149.712 9.4271 149.887 9.35233C150.062 9.27469 150.249 9.21429 150.448 9.17116C150.649 9.12514 150.858 9.09207 151.073 9.07194C151.289 9.05181 151.502 9.04174 151.712 9.04174C151.942 9.04174 152.159 9.05181 152.363 9.07194C152.57 9.09207 152.769 9.11939 152.958 9.1539C153.151 9.18554 153.338 9.22292 153.519 9.26606C153.703 9.3092 153.889 9.35521 154.076 9.4041V10.0253Z"
     fill="#070707"
     id="path6" />
</svg>
