<svg width="35" height="35" viewBox="0 0 35 35" fill="none" xmlns="http://www.w3.org/2000/svg">
<path fill-rule="evenodd" clip-rule="evenodd" d="M2.1875 17.5C2.1875 21.5611 3.80078 25.4559 6.67243 28.3276C9.54408 31.1992 13.4389 32.8125 17.5 32.8125C21.5611 32.8125 25.4559 31.1992 28.3276 28.3276C31.1992 25.4559 32.8125 21.5611 32.8125 17.5C32.8125 13.4389 31.1992 9.54408 28.3276 6.67243C25.4559 3.80078 21.5611 2.1875 17.5 2.1875C13.4389 2.1875 9.54408 3.80078 6.67243 6.67243C3.80078 9.54408 2.1875 13.4389 2.1875 17.5ZM35 17.5C35 22.1413 33.1563 26.5925 29.8744 29.8744C26.5925 33.1563 22.1413 35 17.5 35C12.8587 35 8.40752 33.1563 5.12563 29.8744C1.84374 26.5925 0 22.1413 0 17.5C0 12.8587 1.84374 8.40752 5.12563 5.12563C8.40752 1.84374 12.8587 0 17.5 0C22.1413 0 26.5925 1.84374 29.8744 5.12563C33.1563 8.40752 35 12.8587 35 17.5ZM18.5938 9.84375C18.5938 9.55367 18.4785 9.27547 18.2734 9.07035C18.0683 8.86523 17.7901 8.75 17.5 8.75C17.2099 8.75 16.9317 8.86523 16.7266 9.07035C16.5215 9.27547 16.4062 9.55367 16.4062 9.84375V22.5159L11.7119 17.8194C11.5065 17.614 11.2279 17.4986 10.9375 17.4986C10.6471 17.4986 10.3685 17.614 10.1631 17.8194C9.95775 18.0248 9.84237 18.3033 9.84237 18.5938C9.84237 18.8842 9.95775 19.1627 10.1631 19.3681L16.7256 25.9306C16.8272 26.0325 16.9479 26.1133 17.0808 26.1684C17.2137 26.2236 17.3561 26.252 17.5 26.252C17.6439 26.252 17.7863 26.2236 17.9192 26.1684C18.0521 26.1133 18.1728 26.0325 18.2744 25.9306L24.8369 19.3681C25.0423 19.1627 25.1576 18.8842 25.1576 18.5938C25.1576 18.3033 25.0423 18.0248 24.8369 17.8194C24.6315 17.614 24.3529 17.4986 24.0625 17.4986C23.7721 17.4986 23.4935 17.614 23.2881 17.8194L18.5938 22.5159V9.84375Z" fill="#070707"/>
</svg>
