<svg width="35" height="24" viewBox="0 0 35 24" fill="none" xmlns="http://www.w3.org/2000/svg">
<path d="M34.2857 21.4686C34.2857 22.3687 33.5211 23.097 32.58 23.097H18.8486C18.3962 23.097 17.9623 22.9254 17.6424 22.6201C17.3226 22.3147 17.1429 21.9005 17.1429 21.4686C17.1429 21.0368 17.3226 20.6226 17.6424 20.3172C17.9623 20.0119 18.3962 19.8403 18.8486 19.8403H32.58C33.5229 19.8403 34.2857 20.5686 34.2857 21.4686ZM34.2857 11.6413C34.2857 12.5414 33.5211 13.2696 32.58 13.2696H1.70571C1.25333 13.2696 0.819476 13.0981 0.499592 12.7927C0.179709 12.4873 0 12.0731 0 11.6413C0 11.2094 0.179709 10.7952 0.499592 10.4899C0.819476 10.1845 1.25333 10.0129 1.70571 10.0129H32.58C33.5229 10.0129 34.2857 10.7428 34.2857 11.6413ZM32.58 3.44225C33.0324 3.44225 33.4662 3.27069 33.7861 2.96531C34.106 2.65994 34.2857 2.24576 34.2857 1.8139C34.2857 1.38203 34.106 0.967854 33.7861 0.662479C33.4662 0.357104 33.0324 0.185547 32.58 0.185547H11.9914C11.7674 0.185547 11.5456 0.227665 11.3387 0.309498C11.1317 0.39133 10.9437 0.511273 10.7853 0.662479C10.6269 0.813685 10.5013 0.993194 10.4156 1.19075C10.3298 1.38831 10.2857 1.60006 10.2857 1.8139C10.2857 2.02773 10.3298 2.23948 10.4156 2.43704C10.5013 2.6346 10.6269 2.81411 10.7853 2.96531C10.9437 3.11652 11.1317 3.23646 11.3387 3.31829C11.5456 3.40013 11.7674 3.44225 11.9914 3.44225H32.58Z" fill="#070707"/>
</svg>
