<svg width="35" height="23" viewBox="0 0 35 23" fill="none" xmlns="http://www.w3.org/2000/svg">
<path d="M34.2857 21.2831C34.2857 22.1832 33.5211 22.9114 32.58 22.9114H18.8486C18.3962 22.9114 17.9623 22.7399 17.6424 22.4345C17.3226 22.1291 17.1429 21.715 17.1429 21.2831C17.1429 20.8512 17.3226 20.4371 17.6424 20.1317C17.9623 19.8263 18.3962 19.6547 18.8486 19.6547H32.58C33.5229 19.6547 34.2857 20.383 34.2857 21.2831V21.2831ZM34.2857 11.4557C34.2857 12.3558 33.5211 13.0841 32.58 13.0841H1.70571C1.25333 13.0841 0.819476 12.9125 0.499592 12.6071C0.179709 12.3018 0 11.8876 0 11.4557C0 11.0239 0.179709 10.6097 0.499592 10.3043C0.819476 9.99893 1.25333 9.82737 1.70571 9.82737H32.58C33.5229 9.82737 34.2857 10.5573 34.2857 11.4557V11.4557ZM32.58 3.2567C33.0324 3.2567 33.4662 3.08514 33.7861 2.77977C34.106 2.47439 34.2857 2.06021 34.2857 1.62835C34.2857 1.19648 34.106 0.782307 33.7861 0.476932C33.4662 0.171557 33.0324 1.28706e-08 32.58 0H11.9914C11.7674 -6.37287e-09 11.5456 0.0421185 11.3387 0.123951C11.1317 0.205783 10.9437 0.325726 10.7853 0.476932C10.6269 0.628138 10.5013 0.807647 10.4156 1.00521C10.3298 1.20277 10.2857 1.41451 10.2857 1.62835C10.2857 1.84219 10.3298 2.05393 10.4156 2.25149C10.5013 2.44905 10.6269 2.62856 10.7853 2.77977C10.9437 2.93097 11.1317 3.05092 11.3387 3.13275C11.5456 3.21458 11.7674 3.2567 11.9914 3.2567H32.58Z" fill="#F1F1F1"/>
</svg>
