<svg width="42" height="42" viewBox="0 0 42 42" fill="none" xmlns="http://www.w3.org/2000/svg">
<path d="M11.9175 0.38325C12.1635 0.137894 12.4967 7.38123e-05 12.8441 0L29.1559 0C29.5033 7.38123e-05 29.8365 0.137894 30.0825 0.38325L41.6168 11.9175C41.8621 12.1635 41.9999 12.4967 42 12.8441V29.1559C41.9999 29.5033 41.8621 29.8365 41.6168 30.0825L30.0825 41.6168C29.8365 41.8621 29.5033 41.9999 29.1559 42H12.8441C12.4967 41.9999 12.1635 41.8621 11.9175 41.6168L0.38325 30.0825C0.137894 29.8365 7.38123e-05 29.5033 0 29.1559L0 12.8441C7.38123e-05 12.4967 0.137894 12.1635 0.38325 11.9175L11.9175 0.38325ZM13.3875 2.625L2.625 13.3875V28.6125L13.3875 39.375H28.6125L39.375 28.6125V13.3875L28.6125 2.625H13.3875Z" fill="#F1F1F1"/>
<path d="M12.1954 12.1957C12.3173 12.0734 12.4622 11.9765 12.6216 11.9103C12.7811 11.8441 12.952 11.8101 13.1247 11.8101C13.2973 11.8101 13.4682 11.8441 13.6277 11.9103C13.7872 11.9765 13.932 12.0734 14.0539 12.1957L20.9997 19.144L27.9454 12.1957C28.0674 12.0736 28.2123 11.9768 28.3718 11.9108C28.5312 11.8447 28.7021 11.8107 28.8747 11.8107C29.0472 11.8107 29.2181 11.8447 29.3776 11.9108C29.537 11.9768 29.6819 12.0736 29.8039 12.1957C29.9259 12.3177 30.0227 12.4626 30.0888 12.622C30.1548 12.7814 30.1888 12.9523 30.1888 13.1249C30.1888 13.2975 30.1548 13.4684 30.0888 13.6278C30.0227 13.7873 29.9259 13.9321 29.8039 14.0542L22.8555 20.9999L29.8039 27.9457C29.9259 28.0677 30.0227 28.2126 30.0888 28.372C30.1548 28.5314 30.1888 28.7023 30.1888 28.8749C30.1888 29.0475 30.1548 29.2184 30.0888 29.3778C30.0227 29.5373 29.9259 29.6821 29.8039 29.8042C29.6819 29.9262 29.537 30.023 29.3776 30.089C29.2181 30.1551 29.0472 30.1891 28.8747 30.1891C28.7021 30.1891 28.5312 30.1551 28.3718 30.089C28.2123 30.023 28.0674 29.9262 27.9454 29.8042L20.9997 22.8558L14.0539 29.8042C13.9319 29.9262 13.787 30.023 13.6276 30.089C13.4681 30.1551 13.2972 30.1891 13.1247 30.1891C12.9521 30.1891 12.7812 30.1551 12.6218 30.089C12.4623 30.023 12.3174 29.9262 12.1954 29.8042C12.0734 29.6821 11.9766 29.5373 11.9105 29.3778C11.8445 29.2184 11.8105 29.0475 11.8105 28.8749C11.8105 28.7023 11.8445 28.5314 11.9105 28.372C11.9766 28.2126 12.0734 28.0677 12.1954 27.9457L19.1438 20.9999L12.1954 14.0542C12.0732 13.9322 11.9762 13.7874 11.91 13.6279C11.8439 13.4685 11.8098 13.2975 11.8098 13.1249C11.8098 12.9523 11.8439 12.7813 11.91 12.6219C11.9762 12.4624 12.0732 12.3176 12.1954 12.1957Z" fill="#F1F1F1"/>
</svg>
