<svg width="384" height="68" viewBox="0 0 384 68" fill="none" xmlns="http://www.w3.org/2000/svg">
<path d="M62 25.2H39.1L32 3L24.9 25.2H2L20.5 38.9L13.5 61L32 47.3L50.5 61L43.4 38.8L62 25.2Z" fill="#FFCE31"/>
<path d="M142 26.2H119.1L112 4L104.9 26.2H82L100.5 39.9L93.5 62L112 48.3L130.5 62L123.4 39.8L142 26.2Z" fill="#FFCE31"/>
<path d="M222 27.2H199.1L192 5L184.9 27.2H162L180.5 40.9L173.5 63L192 49.3L210.5 63L203.4 40.8L222 27.2Z" fill="#FFCE31"/>
<path d="M302 28.2H279.1L272 6L264.9 28.2H242L260.5 41.9L253.5 64L272 50.3L290.5 64L283.4 41.8L302 28.2Z" fill="#FFCE31"/>
<path d="M382 29.2H359.1L352 7L344.9 29.2H322L340.5 42.9L333.5 65L352 51.3L370.5 65L363.4 42.8L382 29.2Z" fill="#FFCE31"/>
</svg>
