<svg width="29" height="20" viewBox="0 0 29 20" fill="none" xmlns="http://www.w3.org/2000/svg">
<path fill-rule="evenodd" clip-rule="evenodd" d="M28.9998 10C28.9998 9.73483 28.8945 9.48047 28.7069 9.29294C28.5194 9.1054 28.2651 9.00004 27.9998 9.00004H4.41383L10.7078 2.70804C10.8008 2.61507 10.8746 2.50469 10.9249 2.38321C10.9752 2.26173 11.0011 2.13153 11.0011 2.00004C11.0011 1.86855 10.9752 1.73835 10.9249 1.61688C10.8746 1.4954 10.8008 1.38502 10.7078 1.29204C10.6149 1.19907 10.5045 1.12531 10.383 1.075C10.2615 1.02468 10.1313 0.998779 9.99983 0.998779C9.86835 0.998779 9.73815 1.02468 9.61667 1.075C9.49519 1.12531 9.38481 1.19907 9.29183 1.29204L1.29183 9.29204C1.19871 9.38493 1.12482 9.49529 1.07441 9.61678C1.024 9.73827 0.998047 9.86851 0.998047 10C0.998047 10.1316 1.024 10.2618 1.07441 10.3833C1.12482 10.5048 1.19871 10.6152 1.29183 10.708L9.29183 18.708C9.38481 18.801 9.49519 18.8748 9.61667 18.9251C9.73815 18.9754 9.86835 19.0013 9.99983 19.0013C10.1313 19.0013 10.2615 18.9754 10.383 18.9251C10.5045 18.8748 10.6149 18.801 10.7078 18.708C10.8008 18.6151 10.8746 18.5047 10.9249 18.3832C10.9752 18.2617 11.0011 18.1315 11.0011 18C11.0011 17.8686 10.9752 17.7384 10.9249 17.6169C10.8746 17.4954 10.8008 17.385 10.7078 17.292L4.41383 11H27.9998C28.2651 11 28.5194 10.8947 28.7069 10.7071C28.8945 10.5196 28.9998 10.2653 28.9998 10Z" fill="#FAFAFA"/>
</svg>
