<svg width="50" height="35" viewBox="0 0 50 35" fill="none" xmlns="http://www.w3.org/2000/svg">
<path d="M48.9542 5.97572C48.6717 4.91171 48.1146 3.94058 47.3388 3.1596C46.5629 2.37861 45.5955 1.81518 44.5333 1.52572C40.6354 0.473633 25 0.473633 25 0.473633C25 0.473633 9.36458 0.473633 5.46458 1.52572C4.40293 1.81569 3.43603 2.37933 2.66058 3.16026C1.88513 3.9412 1.32832 4.91205 1.04583 5.97572C0 9.90071 0 18.0882 0 18.0882C0 18.0882 0 26.2757 1.04583 30.2007C1.3283 31.2647 1.88537 32.2358 2.66123 33.0168C3.4371 33.7978 4.40454 34.3613 5.46667 34.6507C9.36458 35.7028 25 35.7028 25 35.7028C25 35.7028 40.6354 35.7028 44.5354 34.6507C45.5976 34.3614 46.5652 33.7981 47.3411 33.0171C48.117 32.236 48.674 31.2648 48.9562 30.2007C50 26.2757 50 18.0882 50 18.0882C50 18.0882 50 9.90071 48.9542 5.97572ZM19.8854 25.5215V10.6549L32.9542 18.0882L19.8854 25.5215Z" fill="#070707"/>
</svg>
